<svg width="77" height="77" viewBox="0 0 77 77" fill="none" xmlns="http://www.w3.org/2000/svg">
<path d="M49.7292 35.2917C52.387 35.2917 54.5417 33.137 54.5417 30.4792C54.5417 27.8213 52.387 25.6667 49.7292 25.6667C47.0713 25.6667 44.9167 27.8213 44.9167 30.4792C44.9167 33.137 47.0713 35.2917 49.7292 35.2917Z" fill="#ED6F3B"/>
<path d="M27.2708 35.2917C29.9287 35.2917 32.0833 33.137 32.0833 30.4792C32.0833 27.8213 29.9287 25.6667 27.2708 25.6667C24.613 25.6667 22.4583 27.8213 22.4583 30.4792C22.4583 33.137 24.613 35.2917 27.2708 35.2917Z" fill="#ED6F3B"/>
<path d="M38.4679 6.41667C20.7579 6.41667 6.41666 20.79 6.41666 38.5C6.41666 56.21 20.7579 70.5833 38.4679 70.5833C56.21 70.5833 70.5833 56.21 70.5833 38.5C70.5833 20.79 56.21 6.41667 38.4679 6.41667ZM38.5 64.1667C24.3192 64.1667 12.8333 52.6808 12.8333 38.5C12.8333 24.3192 24.3192 12.8333 38.5 12.8333C52.6808 12.8333 64.1667 24.3192 64.1667 38.5C64.1667 52.6808 52.6808 64.1667 38.5 64.1667ZM38.5 44.9167C31.0246 44.9167 24.64 49.5687 22.0733 56.1458H27.4312C29.645 52.3279 33.7517 49.7292 38.5 49.7292C43.2483 49.7292 47.3229 52.3279 49.5687 56.1458H54.9267C52.36 49.5687 45.9754 44.9167 38.5 44.9167V44.9167Z" fill="#ED6F3B"/>
</svg>
