<svg width="16" height="16" viewBox="0 0 16 16" fill="none" xmlns="http://www.w3.org/2000/svg">
<path d="M7.99594 1.33301C4.31594 1.33301 1.33594 4.31968 1.33594 7.99968C1.33594 11.6797 4.31594 14.6663 7.99594 14.6663C11.6826 14.6663 14.6692 11.6797 14.6692 7.99968C14.6692 4.31968 11.6826 1.33301 7.99594 1.33301ZM12.6159 5.33301H10.6492C10.4359 4.49968 10.1292 3.69968 9.72927 2.95968C10.9559 3.37968 11.9759 4.23301 12.6159 5.33301ZM8.0026 2.69301C8.55594 3.49301 8.98927 4.37968 9.27594 5.33301H6.72927C7.01594 4.37968 7.44927 3.49301 8.0026 2.69301ZM2.8426 9.33301C2.73594 8.90635 2.66927 8.45968 2.66927 7.99968C2.66927 7.53968 2.73594 7.09301 2.8426 6.66635H5.09594C5.0426 7.10635 5.0026 7.54635 5.0026 7.99968C5.0026 8.45301 5.0426 8.89301 5.09594 9.33301H2.8426ZM3.38927 10.6663H5.35594C5.56927 11.4997 5.87594 12.2997 6.27594 13.0397C5.04927 12.6197 4.02927 11.773 3.38927 10.6663ZM5.35594 5.33301H3.38927C4.02927 4.22635 5.04927 3.37968 6.27594 2.95968C5.87594 3.69968 5.56927 4.49968 5.35594 5.33301ZM8.0026 13.3063C7.44927 12.5063 7.01594 11.6197 6.72927 10.6663H9.27594C8.98927 11.6197 8.55594 12.5063 8.0026 13.3063ZM9.5626 9.33301H6.4426C6.3826 8.89301 6.33594 8.45301 6.33594 7.99968C6.33594 7.54635 6.3826 7.09968 6.4426 6.66635H9.5626C9.6226 7.09968 9.66927 7.54635 9.66927 7.99968C9.66927 8.45301 9.6226 8.89301 9.5626 9.33301ZM9.72927 13.0397C10.1292 12.2997 10.4359 11.4997 10.6492 10.6663H12.6159C11.9759 11.7663 10.9559 12.6197 9.72927 13.0397ZM10.9092 9.33301C10.9626 8.89301 11.0026 8.45301 11.0026 7.99968C11.0026 7.54635 10.9626 7.10635 10.9092 6.66635H13.1626C13.2692 7.09301 13.3359 7.53968 13.3359 7.99968C13.3359 8.45968 13.2692 8.90635 13.1626 9.33301H10.9092Z" fill="#1F1F1F"/>
</svg>
